# xmcd
#
# Track frame offsets:
#	150
#	20034
#	35467
#	75371
#	106210
#
# Disc length: 1648 seconds
#
# Revision: 1
# Processed by: cddbd v1.5.2PL0 Copyright (c) Steve Scherf et al.
# Submitted via: EasyCDDAExtractor 16.0.1.1
#
DISCID=2f066e05
DTITLE=Big and Rich - Big And Rich's Super Galactic Fan Pak CD
DYEAR=2004
DGENRE=Country
TTITLE0=Save a Horse (Ride a Cowboy) [Dance Mix]
TTITLE1=Never Been Down
TTITLE2=Drinkin' Bout You [Acoustic Version]
TTITLE3=The Bob Song
TTITLE4=Save a Horse (Ride A Cowboy) [Live]
EXTD=
EXTT0=
EXTT1=
EXTT2=
EXTT3=
EXTT4=
PLAYORDER=
